PathFileType	4	(X/Y/Z)	C:/Users/opensim2020/Desktop/walking_exp_matlab/subject06_cal10_run.trc																																																																																																																																																	
DataRate	CameraRate	NumFrames	NumMarkers	Units	OrigDataRate	OrigDataStartFrame	OrigNumFrames																																																																																																																																													
100	100	8	49	mm	100	213	118																																																																																																																																													
Frame#	Time	LKNE			RTIB			RFRM			RWRA			LTHI			RKNE			RELB			RFHD			LWRA			RUPA			STRN			RASI			CLAV			RSHO			LASI			RTHI			RBHD			LBHD			C7			RWRB			RFIN			RTOE			LSHO			RBAK			LTIB			RANK			LFIN			LANK			RHEE			T10			LHEE			LTOE			LFHD			LPSI			RPSI			LUPA			LELB			LFRM			LWRB			*39			*40			*41			*42			*43			*44			*45			*46			*47			*48		
		X1	Y1	Z1	X2	Y2	Z2	X3	Y3	Z3	X4	Y4	Z4	X5	Y5	Z5	X6	Y6	Z6	X7	Y7	Z7	X8	Y8	Z8	X9	Y9	Z9	X10	Y10	Z10	X11	Y11	Z11	X12	Y12	Z12	X13	Y13	Z13	X14	Y14	Z14	X15	Y15	Z15	X16	Y16	Z16	X17	Y17	Z17	X18	Y18	Z18	X19	Y19	Z19	X20	Y20	Z20	X21	Y21	Z21	X22	Y22	Z22	X23	Y23	Z23	X24	Y24	Z24	X25	Y25	Z25	X26	Y26	Z26	X27	Y27	Z27	X28	Y28	Z28	X29	Y29	Z29	X30	Y30	Z30	X31	Y31	Z31	X32	Y32	Z32	X33	Y33	Z33	X34	Y34	Z34	X35	Y35	Z35	X36	Y36	Z36	X37	Y37	Z37	X38	Y38	Z38	X39	Y39	Z39	X40	Y40	Z40	X41	Y41	Z41	X42	Y42	Z42	X43	Y43	Z43	X44	Y44	Z44	X45	Y45	Z45	X46	Y46	Z46	X47	Y47	Z47	X48	Y48	Z48	X49	Y49	Z49
																																																																																																																																																				
45	0.44	105.28537	559.3595	226.9491	330.3736	271.61383	723.65881	481.52365	1072.8938	325.58755	363.30017	1126.43213	270.97177	66.39689	679.9566	325.19513	352.0567	475.68634	552.55145	549.77142	1094.97363	398.90515	345.90057	1623.32483	303.54361	47.62888	1098.94617	407.83707	530.7865	1199.34509	407.53143	239.08154	1160.15295	320.41626	353.94925	915.62653	406.63138	255.26921	1343.44373	333.99216	417.41348	1374.18713	364.98169	140.18439	934.76215	379.86377	381.12616	600.69934	532.86243	341.92584	1571.19836	435.20065	212.86821	1581.06934	437.39835	268.10312	1430.33972	438.95172	386.505	1074.94299	236.93527	352.06192	1128.52356	189.59413	241.64052	30.12258	739.8017	108.92959	1404.7804	409.40656	344.97348	1271.00208	524.5545	99.09309	352.56253	345.06393	274.34753	136.09418	845.57397	34.70233	1031.52051	342.43802	126.60815	201.4153	433.5921	234.82668	149.07561	890.79327	250.95065	1114.44421	521.11139	169.09805	198.0089	482.28311	133.01996	133.11983	312.23907	214.04082	1638.96582	304.92493	148.23044	987.68384	533.42529	316.06503	980.56281	542.69421	3.80707	1288.42407	525.32343	-35.08749	1219.55774	594.41949	-30.28353	1117.34644	510.22922	10.11911	1042.56567	429.7699							275.37366	-405.8989	1672.63586																					 
46	0.45	106.13873	573.40375	183.84792	333.06024	286.46268	706.59308	478.79837	1088.47949	283.94711	360.47186	1146.44006	234.43245	68.67603	693.62726	283.32309	352.62134	486.68549	528.82928	549.84943	1106.12988	355.06396	343.70258	1631.74927	264.65866	45.80024	1108.71985	377.09119	530.03326	1209.74695	363.93124	238.47479	1169.50195	282.96701	353.98862	923.35565	363.49161	253.90678	1352.41553	297.2782	416.00424	1384.38379	325.17679	140.94142	945.19611	339.93588	381.61554	609.52869	499.70963	340.271	1581.06348	396.81522	211.16931	1590.65356	399.26935	268.39053	1438.76465	401.99152	381.59753	1096.05005	198.01181	346.76746	1152.28284	153.83723	241.56693	30.09148	739.08807	109.55331	1413.8313	375.75906	347.80176	1279.18481	484.83868	102.03927	355.99377	285.22653	280.06458	151.97853	829.25305	31.2625	1040.49695	312.36801	132.1272	199.44252	363.27621	240.76323	166.63943	871.53473	254.72385	1121.74829	481.25211	173.03624	195.13704	413.4057	146.33701	134.65329	239.44084	211.8943	1647.0979	266.30194	151.39992	996.56494	493.92178	319.35001	988.02808	500.33008	6.36202	1299.39185	493.75308	-31.30055	1231.56677	564.38141	-29.68001	1128.76953	481.23407	7.96513	1053.1427	400.15411							273.40503	-366.65689	1682.08032																					 
47	0.46	107.51685	586.11542	141.84052	336.61859	301.83185	686.38031	476.42239	1103.48169	243.17116	358.31433	1164.75952	198.18182	70.93774	706.5874	242.41377	353.63971	498.76617	503.07977	549.86029	1117.61536	312.03088	341.39877	1640.39465	225.57091	44.92719	1118.69592	345.23175	528.82843	1220.77087	321.98187	237.28458	1179.28027	244.6227	353.58807	931.71423	319.45316	252.50371	1361.70654	260.5387	414.35593	1394.76624	285.49155	141.52379	956.05347	299.65674	382.28488	618.9624	465.64716	338.51373	1591.42542	358.26889	209.41245	1600.62317	360.97134	268.63144	1447.78699	364.72717	377.42087	1115.40674	159.89778	342.21808	1173.46643	118.41763	242.48759	29.43504	738.26923	110.25947	1423.0592	341.62149	350.43787	1287.82227	444.99918	105.94454	359.1181	226.35727	286.55432	165.83984	808.11322	29.11073	1049.92188	281.1608	138.48608	197.791	293.71814	247.00984	183.37015	847.30304	258.79535	1129.92114	441.88049	178.06702	192.974	344.87024	160.0779	135.37126	168.35687	209.67343	1655.40112	227.51753	155.11578	1005.87091	453.81155	322.5986	995.6358	457.0444	8.82323	1310.31531	461.26913	-27.58839	1243.03735	533.27924	-28.52378	1139.77954	450.88751	6.79075	1063.86218	369.14743							271.23676	-327.1265	1691.87842																					 
48	0.47	108.84518	596.98688	101.06879	341.99438	316.37817	662.67383	474.58618	1117.4657	203.27255	355.69147	1180.89319	162.78503	72.82098	717.95099	202.87753	354.77902	511.04764	476.05093	550.11719	1129.25769	270.00641	339.06476	1648.56311	186.37396	44.99992	1128.60693	312.44797	527.95428	1232.28711	280.50696	236.10732	1189.14624	206.08862	352.90009	940.69318	275.04291	251.16476	1370.87219	223.81427	412.57031	1405.04443	246.03381	142.07341	966.69928	259.39664	383.00977	628.4696	431.48868	336.76215	1601.60938	319.68436	207.56575	1610.43909	322.55148	268.69626	1456.8175	326.983	373.94373	1132.71106	122.34461	338.57623	1192.19177	82.74663	243.99937	32.18531	733.23602	110.96318	1431.9939	306.92813	352.92673	1296.52405	405.04657	110.33111	361.55237	168.8446	293.91782	177.39601	783.35278	28.0003	1059.39722	248.77307	145.61053	196.6467	225.72636	254.75655	199.93529	819.35651	262.95084	1138.32483	402.35056	184.37149	191.39069	277.45026	173.8214	135.13472	99.68898	207.49945	1663.22986	188.38885	159.16927	1015.08472	413.08594	325.5946	1003.20764	413.20517	11.17783	1320.85815	428.05209	-24.10892	1253.79773	501.12726	-26.90306	1150.54187	419.16397	6.29497	1074.58191	336.95529							269.02936	-287.28818	1701.552																					 
49	0.48	109.8837	605.50806	61.63188	347.13	329.92752	636.22644	473.16483	1130.2323	164.00777	355.37262	1196.76477	125.53941	74.4088	727.59174	164.16519	356.78351	522.86597	448.09384	550.61523	1140.3064	228.90981	336.6893	1655.61926	147.2285	45.69729	1138.11572	278.75299	527.50568	1243.99951	239.61685	234.92465	1198.58606	166.93582	352.17636	949.56775	231.16533	249.90063	1379.49463	187.14825	410.4418	1414.62683	206.97003	142.72737	976.39532	219.82802	384.14261	638.2533	397.87881	334.84149	1610.80688	281.13635	205.57242	1619.31287	284.08447	268.58322	1465.24219	288.99341	371.07477	1147.80957	85.10323	335.23935	1207.92261	46.43635	246.81842	39.10802	722.89703	111.67194	1440.27661	271.53757	355.21219	1304.72986	364.98996	114.83492	363.24719	113.09544	300.17847	190.12704	756.67096	27.70482	1068.77112	215.49475	152.94119	195.53072	159.54343	262.4194	216.69328	790.51123	266.99271	1146.521	362.96222	190.75244	189.84668	211.16222	187.11609	135.35133	31.15519	205.2252	1670.07129	149.24918	163.28387	1023.87769	372.46933	328.89209	1010.26984	369.39081	13.45112	1330.67932	394.11929	-20.8226	1263.60315	468.20804	-24.9714	1160.82507	386.48364	6.61412	1084.80847	303.47992							266.75494	-247.34007	1710.25134																					 
50	0.49	110.70432	611.6684	23.04622	350.30701	342.2099	607.84705	472.27591	1141.55212	125.16115	354.79929	1210.02686	88.47124	75.75593	735.35114	125.61185	359.13205	534.11456	418.69077	551.24152	1150.30444	188.41293	334.44489	1661.49158	108.13696	47.04076	1146.88171	244.3624	527.31207	1255.01038	199.36679	233.89803	1207.06372	127.87938	350.94644	957.79291	188.5569	248.78041	1387.14844	150.31393	408.37534	1423.67078	168.25667	143.48715	984.69073	180.28114	385.3566	647.70557	364.2164	332.8064	1618.37219	242.6998	203.52496	1626.62842	245.68509	268.32205	1472.43066	251.0199	368.60709	1160.53711	47.94853	331.49271	1220.79504	10.01689	251.72435	48.32983	709.90344	112.3645	1447.57239	235.53238	357.41772	1312.02429	325.19302	118.71159	364.70313	60.71316	305.79892	204.10188	728.20044	28.14932	1077.56482	181.21332	159.89525	194.20818	95.38653	269.30853	233.44276	760.17999	270.72931	1154.1864	323.64465	197.34079	188.32231	146.97847	199.3318	135.1306	-34.34645	202.86298	1675.71216	110.27288	167.19069	1031.63635	332.07269	332.60922	1016.56927	326.34393	15.55905	1339.43396	359.55756	-17.80653	1272.38672	434.6778	-22.79784	1170.14868	352.72562	7.37969	1094.18286	269.40762							264.49738	-207.63472	1717.3363																					 
51	0.5	111.45852	615.44293	-14.38582	352.91083	353.17328	577.11298	471.78619	1151.04797	86.64438	354.88239	1221.23083	50.7463	76.74902	740.93683	87.46544	360.72061	543.5473	385.8233	552.1311	1158.98108	148.40764	332.26529	1666.60034	69.28551	48.71387	1154.80542	209.41425	526.80664	1264.77783	159.82256	233.28291	1214.09351	89.06598	350.75607	964.61969	146.80423	247.67046	1393.69592	113.19017	406.41309	1431.59583	129.79579	144.21033	991.2984	141.24582	387.0394	656.71082	329.34369	330.73224	1624.35291	204.09004	201.4416	1632.46069	207.22359	267.99744	1478.25269	213.21629	366.56375	1170.65479	10.95329	328.71658	1230.72998	-27.17269	257.12735	57.27689	692.96887	112.91394	1453.6936	198.91066	359.53516	1318.37085	285.62238	122.32641	364.91296	11.72256	309.94418	218.48984	699.43396	29.08328	1085.71826	146.34946	166.37024	192.48346	33.47098	273.72021	249.26585	729.60992	273.86765	1161.13086	284.27115	203.43454	186.11574	84.19619	210.25029	135.15408	-97.48072	200.46475	1680.60083	71.49486	170.83873	1037.87329	292.19388	336.27969	1022.15448	284.31824	17.2934	1346.88611	324.34756	-15.04208	1279.89832	400.47324	-20.54741	1178.21582	318.38263	8.72903	1102.47327	234.43118							262.27603	-168.43445	1722.85864																					 
52	0.51	112.66135	616.65936	-49.97684	355.36694	362.40811	542.85297	471.69754	1158.64087	48.20644	355.24194	1230.02429	12.76734	77.49074	744.09778	49.9584	361.56827	549.90491	348.98047	553.1615	1166.10498	108.71698	329.88791	1671.31042	30.57318	50.66838	1161.73938	173.93573	526.51855	1272.95825	120.05309	233.05298	1219.62659	50.39186	351.39233	970.03088	106.03222	246.66423	1399.00781	75.70718	404.78799	1438.37146	91.37402	144.90637	995.99457	102.3456	388.944	663.51801	292.21893	328.72314	1629.45105	165.58183	199.42177	1637.20886	168.80402	267.53357	1482.79846	175.58835	364.84363	1178.20544	-26.01865	326.48767	1237.71667	-64.88632	265.74619	71.83685	668.63489	113.07584	1458.6665	161.71953	361.48111	1323.89905	246.41388	125.60786	363.45575	-34.89795	312.75818	233.48314	671.37433	30.46882	1092.95325	110.52641	172.48166	190.32964	-25.94515	275.90338	264.43903	701.67133	276.49036	1167.18567	244.8689	209.4162	183.62172	23.4044	219.2515	134.99321	-158.97008	198.04681	1684.92688	32.86847	173.83913	1042.61108	252.6772	339.16748	1027.31641	243.07523	18.63281	1352.83215	288.60953	-12.72892	1286.02588	365.83307	-18.22182	1184.82336	283.45395	10.65154	1109.44922	199.02774							259.95193	-129.70331	1727.56763																					 
